<svg id="visual" viewBox="0 0 960 540" width="960" height="540" xmlns="http://www.w3.org/2000/svg" xmlns:xlink="http://www.w3.org/1999/xlink" version="1.1"><rect x="0" y="0" width="960" height="540" fill="#0066FF"></rect><defs><linearGradient id="grad1_0" x1="43.8%" y1="0%" x2="100%" y2="100%"><stop offset="14.444444444444446%" stop-color="#4facf7" stop-opacity="1"></stop><stop offset="85.55555555555554%" stop-color="#4facf7" stop-opacity="1"></stop></linearGradient></defs><defs><linearGradient id="grad1_1" x1="43.8%" y1="0%" x2="100%" y2="100%"><stop offset="14.444444444444446%" stop-color="#4facf7" stop-opacity="1"></stop><stop offset="85.55555555555554%" stop-color="#2ea0fc" stop-opacity="1"></stop></linearGradient></defs><defs><linearGradient id="grad1_2" x1="43.8%" y1="0%" x2="100%" y2="100%"><stop offset="14.444444444444446%" stop-color="#0093ff" stop-opacity="1"></stop><stop offset="85.55555555555554%" stop-color="#2ea0fc" stop-opacity="1"></stop></linearGradient></defs><defs><linearGradient id="grad1_3" x1="43.8%" y1="0%" x2="100%" y2="100%"><stop offset="14.444444444444446%" stop-color="#0093ff" stop-opacity="1"></stop><stop offset="85.55555555555554%" stop-color="#0085ff" stop-opacity="1"></stop></linearGradient></defs><defs><linearGradient id="grad1_4" x1="43.8%" y1="0%" x2="100%" y2="100%"><stop offset="14.444444444444446%" stop-color="#0077ff" stop-opacity="1"></stop><stop offset="85.55555555555554%" stop-color="#0085ff" stop-opacity="1"></stop></linearGradient></defs><defs><linearGradient id="grad1_5" x1="43.8%" y1="0%" x2="100%" y2="100%"><stop offset="14.444444444444446%" stop-color="#0077ff" stop-opacity="1"></stop><stop offset="85.55555555555554%" stop-color="#0066ff" stop-opacity="1"></stop></linearGradient></defs><defs><linearGradient id="grad2_0" x1="0%" y1="0%" x2="56.3%" y2="100%"><stop offset="14.444444444444446%" stop-color="#4facf7" stop-opacity="1"></stop><stop offset="85.55555555555554%" stop-color="#4facf7" stop-opacity="1"></stop></linearGradient></defs><defs><linearGradient id="grad2_1" x1="0%" y1="0%" x2="56.3%" y2="100%"><stop offset="14.444444444444446%" stop-color="#2ea0fc" stop-opacity="1"></stop><stop offset="85.55555555555554%" stop-color="#4facf7" stop-opacity="1"></stop></linearGradient></defs><defs><linearGradient id="grad2_2" x1="0%" y1="0%" x2="56.3%" y2="100%"><stop offset="14.444444444444446%" stop-color="#2ea0fc" stop-opacity="1"></stop><stop offset="85.55555555555554%" stop-color="#0093ff" stop-opacity="1"></stop></linearGradient></defs><defs><linearGradient id="grad2_3" x1="0%" y1="0%" x2="56.3%" y2="100%"><stop offset="14.444444444444446%" stop-color="#0085ff" stop-opacity="1"></stop><stop offset="85.55555555555554%" stop-color="#0093ff" stop-opacity="1"></stop></linearGradient></defs><defs><linearGradient id="grad2_4" x1="0%" y1="0%" x2="56.3%" y2="100%"><stop offset="14.444444444444446%" stop-color="#0085ff" stop-opacity="1"></stop><stop offset="85.55555555555554%" stop-color="#0077ff" stop-opacity="1"></stop></linearGradient></defs><defs><linearGradient id="grad2_5" x1="0%" y1="0%" x2="56.3%" y2="100%"><stop offset="14.444444444444446%" stop-color="#0066ff" stop-opacity="1"></stop><stop offset="85.55555555555554%" stop-color="#0077ff" stop-opacity="1"></stop></linearGradient></defs><g transform="translate(960, 0)"><path d="M0 378C-49.9 372.4 -99.9 366.9 -144.3 348.3C-188.7 329.7 -227.6 298.2 -263 263C-298.5 227.9 -330.6 189.1 -349.2 144.7C-367.8 100.2 -372.9 50.1 -378 0L0 0Z" fill="#006fff"></path><path d="M0 315C-41.6 310.4 -83.2 305.7 -120.2 290.3C-157.2 274.8 -189.6 248.5 -219.2 219.2C-248.8 189.9 -275.5 157.6 -291 120.5C-306.5 83.5 -310.8 41.8 -315 0L0 0Z" fill="#007eff"></path><path d="M0 252C-33.3 248.3 -66.6 244.6 -96.2 232.2C-125.8 219.8 -151.7 198.8 -175.4 175.4C-199 151.9 -220.4 126.1 -232.8 96.4C-245.2 66.8 -248.6 33.4 -252 0L0 0Z" fill="#008cff"></path><path d="M0 189C-25 186.2 -49.9 183.4 -72.1 174.2C-94.3 164.9 -113.8 149.1 -131.5 131.5C-149.3 113.9 -165.3 94.5 -174.6 72.3C-183.9 50.1 -186.5 25.1 -189 0L0 0Z" fill="#179afe"></path><path d="M0 126C-16.6 124.1 -33.3 122.3 -48.1 116.1C-62.9 109.9 -75.9 99.4 -87.7 87.7C-99.5 76 -110.2 63 -116.4 48.2C-122.6 33.4 -124.3 16.7 -126 0L0 0Z" fill="#3fa6f9"></path><path d="M0 63C-8.3 62.1 -16.6 61.1 -24 58.1C-31.4 55 -37.9 49.7 -43.8 43.8C-49.8 38 -55.1 31.5 -58.2 24.1C-61.3 16.7 -62.2 8.4 -63 0L0 0Z" fill="#4facf7"></path></g><g transform="translate(0, 540)"><path d="M0 -378C43.9 -360.6 87.8 -343.1 135.9 -328C183.9 -312.9 236.2 -300 267.3 -267.3C298.4 -234.5 308.4 -181.8 323.4 -133.9C338.3 -86.1 358.1 -43 378 0L0 0Z" fill="#006fff"></path><path d="M0 -315C36.6 -300.5 73.2 -285.9 113.2 -273.3C153.3 -260.7 196.8 -250 222.7 -222.7C248.7 -195.4 257 -151.5 269.5 -111.6C281.9 -71.7 298.5 -35.9 315 0L0 0Z" fill="#007eff"></path><path d="M0 -252C29.3 -240.4 58.5 -228.7 90.6 -218.7C122.6 -208.6 157.4 -200 178.2 -178.2C198.9 -156.4 205.6 -121.2 215.6 -89.3C225.5 -57.4 238.8 -28.7 252 0L0 0Z" fill="#008cff"></path><path d="M0 -189C21.9 -180.3 43.9 -171.6 67.9 -164C92 -156.4 118.1 -150 133.6 -133.6C149.2 -117.3 154.2 -90.9 161.7 -67C169.1 -43 179.1 -21.5 189 0L0 0Z" fill="#179afe"></path><path d="M0 -126C14.6 -120.2 29.3 -114.4 45.3 -109.3C61.3 -104.3 78.7 -100 89.1 -89.1C99.5 -78.2 102.8 -60.6 107.8 -44.6C112.8 -28.7 119.4 -14.3 126 0L0 0Z" fill="#3fa6f9"></path><path d="M0 -63C7.3 -60.1 14.6 -57.2 22.6 -54.7C30.7 -52.1 39.4 -50 44.5 -44.5C49.7 -39.1 51.4 -30.3 53.9 -22.3C56.4 -14.3 59.7 -7.2 63 0L0 0Z" fill="#4facf7"></path></g></svg>