<svg id="visual" viewBox="0 0 960 540" width="960" height="540" xmlns="http://www.w3.org/2000/svg" xmlns:xlink="http://www.w3.org/1999/xlink" version="1.1"><rect x="0" y="0" width="960" height="540" fill="#0066FF"></rect><defs><linearGradient id="grad1_0" x1="43.8%" y1="100%" x2="100%" y2="0%"><stop offset="14.444444444444446%" stop-color="#4facf7" stop-opacity="1"></stop><stop offset="85.55555555555554%" stop-color="#4facf7" stop-opacity="1"></stop></linearGradient></defs><defs><linearGradient id="grad1_1" x1="43.8%" y1="100%" x2="100%" y2="0%"><stop offset="14.444444444444446%" stop-color="#4facf7" stop-opacity="1"></stop><stop offset="85.55555555555554%" stop-color="#0b98fe" stop-opacity="1"></stop></linearGradient></defs><defs><linearGradient id="grad1_2" x1="43.8%" y1="100%" x2="100%" y2="0%"><stop offset="14.444444444444446%" stop-color="#0081ff" stop-opacity="1"></stop><stop offset="85.55555555555554%" stop-color="#0b98fe" stop-opacity="1"></stop></linearGradient></defs><defs><linearGradient id="grad1_3" x1="43.8%" y1="100%" x2="100%" y2="0%"><stop offset="14.444444444444446%" stop-color="#0081ff" stop-opacity="1"></stop><stop offset="85.55555555555554%" stop-color="#0066ff" stop-opacity="1"></stop></linearGradient></defs><defs><linearGradient id="grad2_0" x1="0%" y1="100%" x2="56.3%" y2="0%"><stop offset="14.444444444444446%" stop-color="#4facf7" stop-opacity="1"></stop><stop offset="85.55555555555554%" stop-color="#4facf7" stop-opacity="1"></stop></linearGradient></defs><defs><linearGradient id="grad2_1" x1="0%" y1="100%" x2="56.3%" y2="0%"><stop offset="14.444444444444446%" stop-color="#0b98fe" stop-opacity="1"></stop><stop offset="85.55555555555554%" stop-color="#4facf7" stop-opacity="1"></stop></linearGradient></defs><defs><linearGradient id="grad2_2" x1="0%" y1="100%" x2="56.3%" y2="0%"><stop offset="14.444444444444446%" stop-color="#0b98fe" stop-opacity="1"></stop><stop offset="85.55555555555554%" stop-color="#0081ff" stop-opacity="1"></stop></linearGradient></defs><defs><linearGradient id="grad2_3" x1="0%" y1="100%" x2="56.3%" y2="0%"><stop offset="14.444444444444446%" stop-color="#0066ff" stop-opacity="1"></stop><stop offset="85.55555555555554%" stop-color="#0081ff" stop-opacity="1"></stop></linearGradient></defs><g transform="translate(960, 540)"><path d="M-486 0C-477.8 -35.1 -469.6 -70.2 -463.1 -105.7C-456.6 -141.2 -451.7 -177.1 -437.9 -210.9C-424 -244.6 -401.1 -276.1 -371.4 -296.2C-341.7 -316.2 -305.2 -324.7 -278.7 -349.5C-252.2 -374.2 -235.7 -415.2 -206.5 -428.9C-177.4 -442.5 -135.6 -428.9 -99 -433.8C-62.5 -438.8 -31.2 -462.4 0 -486L0 0Z" fill="#0074ff"></path><path d="M-364.5 0C-358.4 -26.3 -352.2 -52.6 -347.3 -79.3C-342.4 -105.9 -338.8 -132.9 -328.4 -158.2C-318 -183.4 -300.8 -207.1 -278.5 -222.1C-256.3 -237.1 -228.9 -243.5 -209 -262.1C-189.2 -280.7 -176.8 -311.4 -154.9 -321.6C-133 -331.9 -101.7 -321.7 -74.3 -325.4C-46.9 -329.1 -23.4 -346.8 0 -364.5L0 0Z" fill="#008cff"></path><path d="M-243 0C-238.9 -17.5 -234.8 -35.1 -231.5 -52.8C-228.3 -70.6 -225.9 -88.6 -218.9 -105.4C-212 -122.3 -200.5 -138.1 -185.7 -148.1C-170.8 -158.1 -152.6 -162.4 -139.3 -174.7C-126.1 -187.1 -117.8 -207.6 -103.3 -214.4C-88.7 -221.3 -67.8 -214.4 -49.5 -216.9C-31.2 -219.4 -15.6 -231.2 0 -243L0 0Z" fill="#34a2fb"></path><path d="M-121.5 0C-119.5 -8.8 -117.4 -17.5 -115.8 -26.4C-114.1 -35.3 -112.9 -44.3 -109.5 -52.7C-106 -61.1 -100.3 -69 -92.8 -74C-85.4 -79 -76.3 -81.2 -69.7 -87.4C-63.1 -93.6 -58.9 -103.8 -51.6 -107.2C-44.3 -110.6 -33.9 -107.2 -24.8 -108.5C-15.6 -109.7 -7.8 -115.6 0 -121.5L0 0Z" fill="#4facf7"></path></g><g transform="translate(0, 0)"><path d="M486 0C477.8 35.4 469.6 70.8 461.1 105.3C452.6 139.7 443.8 173.3 432.5 208.3C421.1 243.2 407.2 279.5 380 303C352.8 326.5 312.3 337.3 278.7 349.5C245.1 361.6 218.3 375.2 191.8 398.2C165.3 421.2 139.2 453.7 107.3 469.9C75.3 486.1 37.7 486.1 0 486L0 0Z" fill="#0074ff"></path><path d="M364.5 0C358.4 26.5 352.2 53.1 345.9 78.9C339.5 104.8 332.9 130 324.3 156.2C315.8 182.4 305.4 209.6 285 227.3C264.6 244.9 234.2 253 209 262.1C183.8 271.2 163.7 281.4 143.8 298.7C124 315.9 104.4 340.3 80.4 352.4C56.5 364.6 28.3 364.5 0 364.5L0 0Z" fill="#008cff"></path><path d="M243 0C238.9 17.7 234.8 35.4 230.6 52.6C226.3 69.9 221.9 86.7 216.2 104.1C210.5 121.6 203.6 139.7 190 151.5C176.4 163.3 156.2 168.7 139.3 174.7C122.5 180.8 109.1 187.6 95.9 199.1C82.6 210.6 69.6 226.9 53.6 235C37.7 243.1 18.8 243 0 243L0 0Z" fill="#34a2fb"></path><path d="M121.5 0C119.5 8.8 117.4 17.7 115.3 26.3C113.2 34.9 111 43.3 108.1 52.1C105.3 60.8 101.8 69.9 95 75.8C88.2 81.6 78.1 84.3 69.7 87.4C61.3 90.4 54.6 93.8 47.9 99.6C41.3 105.3 34.8 113.4 26.8 117.5C18.8 121.5 9.4 121.5 0 121.5L0 0Z" fill="#4facf7"></path></g></svg>