<svg width="13" height="13" viewBox="0 0 13 13" fill="none" xmlns="http://www.w3.org/2000/svg">
<path d="M1.55999 4.2L2.60399 3.6V7.2L5.19599 5.7V2.1L6.23999 1.5V3.9C6.23999 4.108 6.18799 4.332 6.08399 4.572C5.98799 4.812 5.85999 5.036 5.69999 5.244C5.54799 5.444 5.37999 5.596 5.19599 5.7C5.46799 5.54 5.70799 5.52 5.91599 5.64C6.13199 5.76 6.23999 5.98 6.23999 6.3V9.9L5.19599 10.5V6.9L2.60399 8.4V12L1.55999 12.6V4.2ZM5.19599 6.9V10.5L4.15199 9.9V6.3L5.19599 6.9ZM5.92799 5.64C5.71199 5.52 5.46799 5.54 5.19599 5.7L4.15199 5.1C4.43199 4.94 4.67599 4.92 4.88399 5.04L5.92799 5.64ZM6.23999 1.5L5.19599 2.1L4.15199 1.5L5.19599 0.900001L6.23999 1.5ZM5.19599 2.1V5.7L4.15199 5.1V1.5L5.19599 2.1ZM5.19599 5.7L2.60399 7.2L1.55999 6.6L4.15199 5.1L5.19599 5.7ZM2.60399 3.6L1.55999 4.2L0.515991 3.6L1.55999 3L2.60399 3.6ZM1.55999 4.2V12.6L0.515991 12V3.6L1.55999 4.2Z" fill="#79B6FF"/>
<path d="M9.36571 3.12L11.9577 1.62C12.2297 1.46 12.4697 1.44 12.6777 1.56C12.8937 1.68 13.0017 1.9 13.0017 2.22V3.42L11.9577 4.02V2.82L9.36571 4.32V11.28L11.9577 9.78V8.58L13.0017 7.98V9.18C13.0017 9.388 12.9497 9.612 12.8457 9.852C12.7497 10.092 12.6217 10.316 12.4617 10.524C12.3097 10.724 12.1417 10.876 11.9577 10.98L9.36571 12.48C9.08571 12.64 8.84171 12.66 8.63371 12.54C8.42571 12.42 8.32171 12.2 8.32171 11.88V4.92C8.32171 4.704 8.36971 4.48 8.46571 4.248C8.56171 4.008 8.68971 3.788 8.84971 3.588C9.00971 3.38 9.18171 3.224 9.36571 3.12ZM13.0017 7.98L11.9577 8.58L10.9137 7.98L11.9577 7.38L13.0017 7.98ZM11.9577 8.58V9.78L10.9137 9.18V7.98L11.9577 8.58ZM11.9577 9.78L9.36571 11.28L8.32171 10.68L10.9137 9.18L11.9577 9.78ZM11.9577 2.82V4.02L10.9137 3.42V2.22L11.9577 2.82ZM12.6897 1.56C12.4737 1.44 12.2297 1.46 11.9577 1.62L9.36571 3.12C9.18171 3.224 9.00971 3.38 8.84971 3.588C8.68971 3.788 8.56171 4.008 8.46571 4.248C8.36971 4.48 8.32171 4.704 8.32171 4.92V11.88C8.32171 12.2 8.42571 12.42 8.63371 12.54L7.58971 11.94C7.38171 11.82 7.27771 11.6 7.27771 11.28V4.32C7.27771 4.104 7.32571 3.88 7.42171 3.648C7.51771 3.408 7.64571 3.188 7.80571 2.988C7.96571 2.78 8.13771 2.624 8.32171 2.52L10.9137 1.02C11.1937 0.860001 11.4377 0.840001 11.6457 0.960001L12.6897 1.56Z" fill="#79B6FF"/>
</svg>
