<svg width="72" height="72" viewBox="0 0 72 72" fill="none" xmlns="http://www.w3.org/2000/svg">
<g clip-path="url(#clip0_8_37)">
<path fill-rule="evenodd" clip-rule="evenodd" d="M36 0.799988C55.44 0.799988 71.2 16.56 71.2 36C71.2 55.44 55.44 71.2 36 71.2C16.56 71.2 0.800018 55.44 0.800018 36C0.800018 16.56 16.56 0.799988 36 0.799988Z" fill="#3B94FF"/>
<path fill-rule="evenodd" clip-rule="evenodd" d="M36 0.800036C16.56 0.800036 0.800024 16.56 0.800024 36C0.800024 55.44 16.56 71.2001 36 71.2001C55.44 71.2001 71.2 55.44 71.2 36C71.2 16.56 55.44 0.800036 36 0.800036ZM36 3.58169e-05C40.7286 -0.00655768 45.4118 0.921586 49.7805 2.7311C54.1491 4.54063 58.1171 7.19581 61.456 10.544C64.8045 13.8829 67.4597 17.8508 69.2693 22.2194C71.0787 26.5882 72.0069 31.2714 72 36C72.0067 40.7287 71.0785 45.4119 69.2691 49.7805C67.4595 54.1492 64.8043 58.1172 61.456 61.4561C58.1171 64.8044 54.1493 67.4596 49.7805 69.2692C45.4118 71.0786 40.7286 72.0068 36 72.0001C31.2714 72.0068 26.5882 71.0788 22.2195 69.2692C17.8507 67.4597 13.8829 64.8044 10.544 61.4561C7.19581 58.117 4.54061 54.1492 2.73109 49.7805C0.921574 45.4119 -0.00655768 40.7287 3.58173e-05 36C-0.00664537 31.2714 0.921446 26.5882 2.73098 22.2196C4.54049 17.8509 7.19574 13.883 10.544 10.544C13.883 7.19574 17.8509 4.5405 22.2195 2.73098C26.5882 0.921457 31.2715 -0.00664538 36 3.58169e-05Z" fill="#00B6FF" fill-opacity="0.15"/>
<path d="M33.0735 16.4006C29.7682 16.8014 29.3144 16.9016 28.6339 17.3022C28.2775 17.4693 27.8887 17.5694 27.7914 17.4693C27.597 17.2355 26.4304 19.3725 26.5277 19.7733C26.56 19.9067 26.3656 20.107 26.1064 20.2074C25.6527 20.4077 25.6527 20.5078 26.1064 21.209C26.3656 21.643 26.4629 22.0104 26.3008 22.0104C25.912 22.0104 25.3287 23.5798 25.1343 25.1493C25.037 25.8838 24.8101 26.6853 24.5834 26.9189C24.0973 27.52 24.0973 30.9926 24.5834 31.9277C24.8426 32.395 24.9722 34.5656 24.9722 38.0717C24.9722 44.7165 25.5879 47.6549 27.6943 50.8272C29.7682 53.9659 30.2543 54.233 34.1429 54.233C37.4157 54.233 37.4805 54.233 39.9109 52.8306C41.2395 52.0626 42.633 51.1277 42.957 50.7603C43.2487 50.393 43.6375 50.1594 43.7671 50.2261C43.8968 50.3262 44.6096 49.7253 45.2901 48.9573C46.5864 47.488 47.9799 44.3826 47.9799 42.88C47.9799 42.4459 48.1418 42.0453 48.3039 41.9784C48.7899 41.8115 49.3408 37.504 49.0816 35.801C48.9843 34.9997 48.6927 34.2317 48.4659 34.0981C48.1418 33.931 48.1095 33.3968 48.3687 31.8608C49.0491 27.6202 48.2391 25.3829 44.48 21.1088C40.7859 16.9016 37.9991 15.7662 33.0735 16.4006Z" fill="black"/>
</g>
<defs>
<clipPath id="clip0_8_37">
<rect width="72" height="72" fill="white"/>
</clipPath>
</defs>
</svg>
