<svg id="visual" viewBox="0 0 960 540" width="960" height="540" xmlns="http://www.w3.org/2000/svg" xmlns:xlink="http://www.w3.org/1999/xlink" version="1.1"><path d="M719 540L722.2 525C725.3 510 731.7 480 738 450C744.3 420 750.7 390 747.5 360C744.3 330 731.7 300 728.5 270C725.3 240 731.7 210 733.3 180C735 150 732 120 733.7 90C735.3 60 741.7 30 744.8 15L748 0L960 0L960 15C960 30 960 60 960 90C960 120 960 150 960 180C960 210 960 240 960 270C960 300 960 330 960 360C960 390 960 420 960 450C960 480 960 510 960 525L960 540Z" fill="#004cbb"></path><path d="M633 540L636.2 525C639.3 510 645.7 480 650.3 450C655 420 658 390 654.8 360C651.7 330 642.3 300 642.3 270C642.3 240 651.7 210 654.8 180C658 150 655 120 653.5 90C652 60 652 30 652 15L652 0L749 0L745.8 15C742.7 30 736.3 60 734.7 90C733 120 736 150 734.3 180C732.7 210 726.3 240 729.5 270C732.7 300 745.3 330 748.5 360C751.7 390 745.3 420 739 450C732.7 480 726.3 510 723.2 525L720 540Z" fill="#0062f3"></path><path d="M517 540L512.3 525C507.7 510 498.3 480 503.2 450C508 420 527 390 530.2 360C533.3 330 520.7 300 511.2 270C501.7 240 495.3 210 492.2 180C489 150 489 120 497 90C505 60 521 30 529 15L537 0L653 0L653 15C653 30 653 60 654.5 90C656 120 659 150 655.8 180C652.7 210 643.3 240 643.3 270C643.3 300 652.7 330 655.8 360C659 390 656 420 651.3 450C646.7 480 640.3 510 637.2 525L634 540Z" fill="#4988ff"></path><path d="M460 540L453.5 525C447 510 434 480 438.8 450C443.7 420 466.3 390 466.3 360C466.3 330 443.7 300 430.8 270C418 240 415 210 411.8 180C408.7 150 405.3 120 416.5 90C427.7 60 453.3 30 466.2 15L479 0L538 0L530 15C522 30 506 60 498 90C490 120 490 150 493.2 180C496.3 210 502.7 240 512.2 270C521.7 300 534.3 330 531.2 360C528 390 509 420 504.2 450C499.3 480 508.7 510 513.3 525L518 540Z" fill="#6198ff"></path><path d="M335 540L328.7 525C322.3 510 309.7 480 314.5 450C319.3 420 341.7 390 348 360C354.3 330 344.7 300 333.5 270C322.3 240 309.7 210 306.5 180C303.3 150 309.7 120 320.8 90C332 60 348 30 356 15L364 0L480 0L467.2 15C454.3 30 428.7 60 417.5 90C406.3 120 409.7 150 412.8 180C416 210 419 240 431.8 270C444.7 300 467.3 330 467.3 360C467.3 390 444.7 420 439.8 450C435 480 448 510 454.5 525L461 540Z" fill="#4988ff"></path><path d="M229 540L227.5 525C226 510 223 480 232.7 450C242.3 420 264.7 390 267.8 360C271 330 255 300 243.8 270C232.7 240 226.3 210 224.7 180C223 150 226 120 234 90C242 60 255 30 261.5 15L268 0L365 0L357 15C349 30 333 60 321.8 90C310.7 120 304.3 150 307.5 180C310.7 210 323.3 240 334.5 270C345.7 300 355.3 330 349 360C342.7 390 320.3 420 315.5 450C310.7 480 323.3 510 329.7 525L336 540Z" fill="#0062f3"></path><path d="M0 540L0 525C0 510 0 480 0 450C0 420 0 390 0 360C0 330 0 300 0 270C0 240 0 210 0 180C0 150 0 120 0 90C0 60 0 30 0 15L0 0L269 0L262.5 15C256 30 243 60 235 90C227 120 224 150 225.7 180C227.3 210 233.7 240 244.8 270C256 300 272 330 268.8 360C265.7 390 243.3 420 233.7 450C224 480 227 510 228.5 525L230 540Z" fill="#004cbb"></path></svg>