<svg id="visual" viewBox="0 0 960 540" width="960" height="540" xmlns="http://www.w3.org/2000/svg" xmlns:xlink="http://www.w3.org/1999/xlink" version="1.1"><rect x="0" y="0" width="960" height="540" fill="#0066FF"></rect><path d="M0 207L26.7 235.2C53.3 263.3 106.7 319.7 160 307.8C213.3 296 266.7 216 320 234.5C373.3 253 426.7 370 480 380.3C533.3 390.7 586.7 294.3 640 288.5C693.3 282.7 746.7 367.3 800 372.2C853.3 377 906.7 302 933.3 264.5L960 227L960 541L933.3 541C906.7 541 853.3 541 800 541C746.7 541 693.3 541 640 541C586.7 541 533.3 541 480 541C426.7 541 373.3 541 320 541C266.7 541 213.3 541 160 541C106.7 541 53.3 541 26.7 541L0 541Z" fill="#4f8df7" stroke-linecap="round" stroke-linejoin="miter"></path></svg>